<svg xmlns="http://www.w3.org/2000/svg" xmlns:xlink="http://www.w3.org/1999/xlink" width="1280" zoomAndPan="magnify" viewBox="0 0 960 959.999988" height="1280" preserveAspectRatio="xMidYMid meet" version="1.0"><path stroke-linecap="butt" transform="matrix(0, 0.75, -0.75, 0, 269.395479, 96.004584)" fill="none" stroke-linejoin="miter" d="M -0.000904266 32.001266 L 848.447058 32.001266 " stroke="#ffffff" stroke-width="64" stroke-opacity="1" stroke-miterlimit="4"/><path stroke-linecap="butt" transform="matrix(-0.75, 0, 0, -0.75, 704.910088, 764.661771)" fill="none" stroke-linejoin="miter" d="M -0.0000910873 32.002155 L 662.197861 32.002155 " stroke="#ffffff" stroke-width="64" stroke-opacity="1" stroke-miterlimit="4"/><path stroke-linecap="butt" transform="matrix(-0.466216, -0.587489, 0.587489, -0.466216, 188.457036, 779.998346)" fill="none" stroke-linejoin="miter" d="M 21.029613 57.88616 C 60.612835 23.372896 100.197485 23.369416 139.781167 57.887118 " stroke="#ffffff" stroke-width="64" stroke-opacity="1" stroke-miterlimit="4"/><path stroke-linecap="butt" transform="matrix(0.361414, -0.657176, 0.657176, 0.361414, 675.146346, 747.42958)" fill="none" stroke-linejoin="miter" d="M 25.691747 27.975333 C 42.05149 50.005952 70.065758 50.006351 109.739114 27.974021 " stroke="#ffffff" stroke-width="64" stroke-opacity="1" stroke-miterlimit="4"/><path stroke-linecap="butt" transform="matrix(-0.41548, -0.624401, 0.624401, -0.41548, 724.688415, 301.521801)" fill="none" stroke-linejoin="miter" d="M 18.635807 26.011983 C 55.754608 52.606652 82.872816 52.608987 99.981758 26.013215 " stroke="#ffffff" stroke-width="64" stroke-opacity="1" stroke-miterlimit="4"/><path stroke-linecap="butt" transform="matrix(-0.75, 0, 0, -0.75, 704.91688, 252.287819)" fill="none" stroke-linejoin="miter" d="M -0.00145175 31.998344 L 238.357936 31.998344 " stroke="#ffffff" stroke-width="64" stroke-opacity="1" stroke-miterlimit="4"/><path stroke-linecap="butt" transform="matrix(-0.723725, 0.196778, -0.196778, -0.723725, 532.438345, 251.447819)" fill="none" stroke-linejoin="miter" d="M 0.00120163 31.999704 L 594.354838 31.998221 " stroke="#ffffff" stroke-width="64" stroke-opacity="1" stroke-miterlimit="4"/><path stroke-linecap="butt" transform="matrix(-0.724444, -0.194114, 0.194114, -0.724444, 519.926978, 251.468913)" fill="none" stroke-linejoin="miter" d="M 0.00299827 32.00132 L 593.761203 32.00252 " stroke="#ffffff" stroke-width="64" stroke-opacity="1" stroke-miterlimit="4"/><path stroke-linecap="butt" transform="matrix(0.000000001309, -0.75, 0.75, 0.000000001309, 709.183504, 687.372991)" fill="none" stroke-linejoin="miter" d="M 0.00252989 32.000122 L 548.794226 32.000121 " stroke="#ffffff" stroke-width="64" stroke-opacity="1" stroke-miterlimit="4"/><path stroke-linecap="butt" transform="matrix(-0.000173288, 0.75, -0.75, -0.000173288, 181.846328, 35.497518)" fill="none" stroke-linejoin="miter" d="M 0.000285736 31.998231 L 866.583666 32.001131 " stroke="#ffffff" stroke-width="64" stroke-opacity="1" stroke-miterlimit="4"/></svg>